<svg id="Capa_1" data-name="Capa 1" xmlns="http://www.w3.org/2000/svg" viewBox="0 0 628.08 193.41"><defs><style>.cls-1{font-size:25px;font-family:AdventSans-Logo, Advent Sans;}.cls-2{letter-spacing:-0.02em;}.cls-3{letter-spacing:-0.02em;}.cls-4{letter-spacing:-0.02em;}</style></defs><title>Adventist Asomagdalena</title><path d="M219,137v-.9c0-7.44-2-11.58-8.67-11.58-5.32,0-7.95,4.53-7.95,11.64s2.63,11.3,8,11.3c6.32,0,8.62-3.47,8.62-10.46m-21.71-1c0-10.29,4.92-15.61,12.36-15.61a10.83,10.83,0,0,1,9.29,4.42h.34c-.11-.95-.34-3.3-.34-4.42V110.36l4.93-1.9V151h-4l-.72-4h-.23c-1.79,2.57-4.64,4.58-9.34,4.58-7.44,0-12.31-5.2-12.31-15.49m37.37-3h15.28c-.06-5.09-2.3-8.56-7.28-8.56-4.7,0-7.49,3.19-8,8.56m20.43.95v3H234.54c.17,6.77,3.58,10.41,9.57,10.41a23.76,23.76,0,0,0,8.22-1.46l1.4,3.69a22.32,22.32,0,0,1-9.85,2c-8.56,0-14.43-5.31-14.43-15.33,0-9.85,5.31-15.78,13.26-15.78,7.66,0,12.36,5.37,12.36,13.54m5.38,17V110.36l4.92-1.9V151Zm36.36.56c-4.47,0-8.45-.67-11-1.9l1.56-4.14a25.89,25.89,0,0,0,9.63,1.68c5.93,0,9-2.46,9-6.43s-2.18-5.6-9.4-8.23c-6.82-2.46-10.29-5.65-10.29-11.86s5.2-10.19,12.76-10.19a26.85,26.85,0,0,1,11,2.24L308.51,117A24.84,24.84,0,0,0,299,114.9c-5,0-7.55,2.34-7.55,5.81,0,4,2.24,5.65,8.73,8.06,7.05,2.63,10.91,5.26,10.91,11.53,0,7.1-5.54,11.24-14.27,11.24m38.5-42.86a48.61,48.61,0,0,1-8,8.4h-3.24v-.67a61.78,61.78,0,0,0,5.31-8.29h5.94ZM319.75,133H335c-.06-5.09-2.3-8.56-7.28-8.56C323.05,124.46,320.25,127.65,319.75,133Zm20.42.95v3H319.64c.17,6.77,3.58,10.41,9.57,10.41a23.76,23.76,0,0,0,8.22-1.46l1.4,3.69a22.32,22.32,0,0,1-9.85,2c-8.56,0-14.43-5.31-14.43-15.33,0-9.85,5.31-15.78,13.26-15.78,7.66,0,12.36,5.37,12.36,13.54Zm10.3,1v1c0,7.39,2,11.53,8.56,11.53,5.43,0,8-4.87,8-11.58s-2.57-11.31-8.11-11.31c-6.1,0-8.34,3.42-8.45,10.41m21.65,1c0,10.24-4.92,15.61-12.36,15.61a10.92,10.92,0,0,1-9.29-4.36h-.34c.11,1.29.34,3.53.34,4.92v12.31h-4.93V121h4l.67,4.09h.23c1.79-2.58,4.47-4.65,9.34-4.65,7.39,0,12.31,5.15,12.31,15.5m18,10.86,1.34,3.52a11.36,11.36,0,0,1-5.49,1.23c-4.69,0-8.78-2-8.78-9.28V116l4.92-1.85V121h8.68v3.81h-8.68v17.34c0,3.64,2,5.38,4.7,5.38a9.2,9.2,0,0,0,3.31-.73M397,151h4.92V121H397Zm5.37-38.1a2.89,2.89,0,1,1-5.77,0c0-2.18,1.29-3.13,2.91-3.13A2.79,2.79,0,0,1,402.39,112.88Zm51,18.58V151h-4.87v-19.3c0-4.7-2-7.11-6.1-7.11-5.82,0-8.11,3.47-8.11,9.85V151h-4.87v-19.3c0-4.7-2-7.11-6.15-7.11-6.05,0-8,3.86-8,10.86V151h-4.93V121h4l.73,4.09h.28a10,10,0,0,1,8.84-4.65c4.59,0,7.72,1.63,9.18,5h.28c2-3.41,5.7-5,9.62-5,6.77,0,10.13,3.3,10.13,11m19.24,16c6,0,8.79-4.42,8.79-11.53s-2.74-11.36-8.84-11.36-8.73,4.26-8.73,11.36,2.69,11.53,8.78,11.53m-.11,4.08c-7.94,0-13.76-5.65-13.76-15.61s5.31-15.5,13.93-15.5c8.11,0,13.82,5.6,13.82,15.5s-5.43,15.61-14,15.61m46.33-36.2h-6.55v31.34h5.43c10.8,0,16.22-5.38,16.22-15.9s-5.48-15.44-15.1-15.44M518.37,151H507.24V111h12.31c12,0,19.69,6.77,19.69,19.59,0,13.48-7.72,20.36-20.87,20.36m26.8,0h4.92V121h-4.92Zm10.35-42.3a48.52,48.52,0,0,1-8,8.4h-3.25v-.68a61.09,61.09,0,0,0,5.32-8.28h5.93v.56Zm14.66,27.81c-7.5.28-9.91,2.41-9.91,6.21,0,3.36,2.24,4.87,5.49,4.87,5,0,8.84-2.74,8.84-8.56v-2.69l-4.42.17Zm9.29-5.93V151h-3.58l-1-4.25h-.22c-2.63,3.3-5,4.81-10.07,4.81-5.43,0-9.46-2.79-9.46-8.89s4.59-9.29,14.38-9.57l5.09-.17v-1.79c0-5-2.29-6.66-6.21-6.66a19.72,19.72,0,0,0-8.45,2.3l-1.51-3.7a22.48,22.48,0,0,1,10.24-2.57c7.28,0,10.75,3.08,10.75,10.07Z" transform="translate(-17 -18)"/><path d="M197.56,91l1.68-4.47h3V55.45h-4.7V51H212l-1.68,4.42h-3V86.51H212V91Zm36.25-20.42c0-4.36-2.07-6.55-6.15-6.55s-6.16,2.24-6.16,6.61q0,6.21,6.21,6.21c4.09,0,6.1-2.13,6.1-6.27m3.36,24c0-1.62-.45-2.68-1.34-3.24s-2.74-.84-5.43-.84h-5.15c-4.19,0-6.26,1.79-6.26,5.43,0,3.13,2.46,4.75,7.38,4.75,7.22,0,10.8-2,10.8-6.1m-22.88,1.52q0-5.79,6.54-7.39a4.41,4.41,0,0,1-2.63-4.2c0-2.07,1.23-3.8,3.64-5.26a9,9,0,0,1-5.2-8.45c0-7,4.36-10.35,11.19-10.35a12.9,12.9,0,0,1,4.08.56h10.35l-1.45,3.81h-3.92a9.42,9.42,0,0,1,1.79,5.82c0,6.21-4.53,9.62-11,9.62a12.79,12.79,0,0,1-2.35-.17c-1.85,1-2.74,2.24-2.74,3.64S224.08,86,227,86h5.09c6,0,9.79,2.75,9.79,8.12,0,6.88-5.15,10.29-15.44,10.29-7,0-12.14-2.4-12.14-8.33M247,91V50.36l4.92-1.9V91Zm16.84-18h15.27c-.05-5.09-2.29-8.56-7.27-8.56-4.7,0-7.5,3.19-8,8.56m20.42,1v3H263.75c.16,6.77,3.58,10.41,9.56,10.41a23.82,23.82,0,0,0,8.23-1.46l1.4,3.69a22.35,22.35,0,0,1-9.85,2c-8.56,0-14.44-5.31-14.44-15.33,0-9.85,5.32-15.78,13.26-15.78,7.67,0,12.37,5.37,12.37,13.54m14,17.57c-4.19,0-7.1-.67-9.4-1.9l1.46-3.8a22.51,22.51,0,0,0,8.05,1.73c5,0,7.11-1.73,7.11-4.42,0-2.24-1.51-3.58-7.38-5.82s-9.29-4-9.29-9c0-5.09,4.53-7.95,11.24-7.95a23.37,23.37,0,0,1,9.57,2l-1.51,4a21.4,21.4,0,0,0-8.39-2c-4,0-6.21,1.4-6.21,3.64,0,2.52,1.95,3.52,7.72,5.71s9,4.08,9,8.89c0,5.82-4.65,8.84-12,8.84m18-.56h4.93V61h-4.93Zm5.37-38.1a2.89,2.89,0,1,1-5.76,0c0-2.18,1.29-3.13,2.91-3.13S321.65,50.7,321.65,52.88Zm20.76,23.61c-7.5.28-9.9,2.41-9.9,6.21,0,3.36,2.23,4.87,5.48,4.87,5,0,8.84-2.74,8.84-8.56V76.32Zm9.29-5.93V91h-3.58l-.95-4.25h-.23c-2.63,3.3-5,4.81-10.07,4.81-5.43,0-9.46-2.79-9.46-8.89s4.59-9.29,14.38-9.57l5.1-.17V71.12c0-5-2.3-6.66-6.21-6.66a19.64,19.64,0,0,0-8.45,2.3l-1.51-3.7A22.45,22.45,0,0,1,341,60.49c7.27,0,10.74,3.08,10.74,10.07Zm36.53-8.5c-.33-.9-1.51-4.59-1.9-6-.56,2.29-1.29,4.7-1.74,6l-4.53,12.08h12.65Zm6,16.56H378.38L373.63,91h-5.09l15.61-40.12h4.53L404.23,91H399l-4.81-12.37ZM426.89,77v-.9c0-7.44-2-11.58-8.67-11.58-5.32,0-8,4.53-8,11.64s2.63,11.3,8,11.3c6.33,0,8.62-3.47,8.62-10.46m-21.71-1c0-10.3,4.93-15.62,12.37-15.62a10.85,10.85,0,0,1,9.29,4.42h.33c-.11-.95-.33-3.3-.33-4.42V50.36l4.92-1.9V91h-4l-.73-4h-.22c-1.79,2.57-4.65,4.58-9.35,4.58-7.44,0-12.31-5.2-12.31-15.5M435.84,61h5.26l6.38,17.69a63.76,63.76,0,0,1,2.41,7.94h.22c.39-1.85,1.68-5.54,2.52-7.94L459,61h5.26L452.85,91H447.2L435.84,61Zm35.42,12h15.27c0-5.09-2.29-8.56-7.27-8.56-4.7,0-7.5,3.19-8,8.56m20.42,1v3H471.15c.17,6.77,3.58,10.41,9.56,10.41a23.82,23.82,0,0,0,8.23-1.46l1.4,3.69a22.32,22.32,0,0,1-9.85,2c-8.56,0-14.43-5.31-14.43-15.33,0-9.85,5.31-15.78,13.26-15.78,7.66,0,12.36,5.37,12.36,13.54m30.61-2.51V91h-4.87V71.79c0-4.81-2.13-7.22-6.72-7.22-6.65,0-8.78,3.86-8.78,10.86V91H497V61h4l.73,4.09H502c1.95-3.14,5.65-4.65,9.45-4.65,7.16,0,10.86,3.3,10.86,11m20,15.33,1.34,3.52a11.39,11.39,0,0,1-5.49,1.23c-4.7,0-8.78-2-8.78-9.28V56l4.92-1.85V61H543V64.8h-8.68V82.14c0,3.64,2,5.38,4.7,5.38a9.1,9.1,0,0,0,3.3-.73M549.2,91h4.92V61H549.2Zm5.37-38.1a2.89,2.89,0,1,1-5.77,0c0-2.18,1.29-3.13,2.91-3.13A2.79,2.79,0,0,1,554.57,52.88Zm15.5,38.66c-4.2,0-7.11-.67-9.41-1.9l1.46-3.8a22.52,22.52,0,0,0,8.06,1.73c5,0,7.1-1.73,7.1-4.42,0-2.24-1.51-3.58-7.38-5.82s-9.29-4-9.29-9c0-5.09,4.53-7.95,11.24-7.95a23.34,23.34,0,0,1,9.57,2l-1.51,4a21.4,21.4,0,0,0-8.39-2c-4,0-6.21,1.4-6.21,3.64,0,2.52,2,3.52,7.72,5.71s9,4.08,9,8.89c0,5.82-4.65,8.84-12,8.84M601,86.79l1.35,3.52a11.39,11.39,0,0,1-5.49,1.23c-4.7,0-8.78-2-8.78-9.28V56L593,54.11V61h8.68V64.8H593V82.14c0,3.64,2,5.38,4.7,5.38a9.1,9.1,0,0,0,3.3-.73m18.58-10.3c-7.5.28-9.91,2.41-9.91,6.21,0,3.36,2.24,4.87,5.49,4.87,5,0,8.84-2.74,8.84-8.56V76.32l-4.42.17Zm9.29-5.93V91h-3.58l-1-4.25h-.22c-2.63,3.3-5,4.81-10.07,4.81-5.43,0-9.46-2.79-9.46-8.89s4.59-9.29,14.38-9.57l5.1-.17V71.12c0-5-2.3-6.66-6.21-6.66a19.64,19.64,0,0,0-8.45,2.3l-1.51-3.7a22.44,22.44,0,0,1,10.23-2.57c7.28,0,10.75,3.08,10.75,10.07Zm4.75-18a.74.74,0,0,0,.84-.73c0-.45-.28-.67-.84-.67h-.5v1.4Zm-1.29-2.07h1.29c1.12,0,1.62.45,1.62,1.34a1.18,1.18,0,0,1-.78,1.12l1.17,2h-.89l-1-1.74h-.61V55h-.79V50.53Zm4.54,2.24a3.11,3.11,0,0,0-3.14-3.19,3.16,3.16,0,1,0,3.14,3.19Zm-6.83,0A3.57,3.57,0,0,1,633.73,49a3.64,3.64,0,0,1,3.7,3.75,3.59,3.59,0,0,1-3.7,3.69A3.56,3.56,0,0,1,630,52.77Z" transform="translate(-17 -18)"/><path d="M94,142.3c0,.54.62.54.73,0a21.44,21.44,0,0,1,4-9.25h-4.4a.36.36,0,0,0-.36.37Zm32.32-55.49c-.18-.58-.69-.62-.68,0,.05,5.78-1.62,10.75-12.16,21.3l-8.35,8.33c-3.79,3.8-7.21,7.27-9.23,10.73h8.24l1-1,12-12C127.05,104.24,128.44,93.69,126.31,86.81Zm-11.19,35.25-10,10C99.07,138.12,94,143.34,94,149v1.59c0,.43.54.5.71.05,1.86-5.11,8.11-10.56,19.56-8.63,0,0,49.89,8.62,50.31,8.66a.47.47,0,0,0,.41-.81c-.19-.22-23.22-23.25-23.22-23.25l-26.64-4.59ZM79,133.05a.37.37,0,0,1-.37-.36v-5.17a.37.37,0,0,1,.37-.36h8.73a.36.36,0,0,0,.36-.36h0c0-4.64-3.51-7.79-17.52-5.35l-30.24,5.2s-23,23-23.22,23.25a.48.48,0,0,0,.42.81c.42,0,50.31-8.66,50.31-8.66,11.45-1.93,17.69,3.52,19.56,8.63.16.45.7.38.7-.05V133.41a.36.36,0,0,0-.36-.36ZM65.09,60.9c-10,10-11.36,20.51-9.23,27.39.18.58.69.62.68,0,0-5.78,1.61-10.74,12.16-21.29L91.44,44.27c6-6.05,11.14-11.26,11.14-17V18.41c0-.54-.62-.55-.74,0-1.49,7.26-4.4,10.12-10.38,16.11L65.09,60.9Zm37.51-18V34c0-.54-.62-.54-.73,0-1.5,7.26-4.4,10.17-10.38,16.16L67.6,74C56,85.58,54,96.8,59.9,104c.39.48.82.2.56-.38-3.9-8.82,5.45-18.17,9.9-22.62l21.1-21.11c6.06-6,11.14-11.26,11.14-17ZM68.26,89c-11.59,11.59-6.26,22.78.5,25.87.59.27.83-.21.37-.61-5.42-4.69-3.77-12.6,3.05-19.41L91.44,75.55c6-6,11.13-11.26,11.13-17V49.69c0-.54-.62-.55-.73,0-1.5,7.26-4.39,10.11-10.38,16.1ZM94,117.78v9c0,.54.62.54.73,0,1.49-7.26,4.39-10.17,10.38-16.16l9.49-9.47c11.59-11.59,13.59-22.8,7.7-30-.4-.48-.82-.2-.56.39,3.89,8.81-5.45,18.16-9.9,22.61l-6.71,6.71C99.05,106.86,94,112.08,94,117.78ZM105.1,94.92c-6,6-8.88,8.84-10.38,16.1-.11.54-.73.54-.73,0v-8.9c0-5.7,5.08-10.92,11.14-17L110,80.28c6.82-6.81,8.47-14.71,3-19.41-.45-.39-.21-.88.38-.6,6.76,3.08,12.09,14.27.5,25.86Zm56.21,38.79c.52,0,.84-.29.84-.72s-.27-.67-.85-.67h-.5v1.39Zm-1.27-2h1.29c1.1,0,1.59.44,1.59,1.31a1.19,1.19,0,0,1-.78,1.15l1.17,2h-.87l-1-1.75h-.63v1.75H160v-4.42Zm4.51,2.2a3.09,3.09,0,0,0-3.13-3.17,3,3,0,0,0-3.14,3.17,3.14,3.14,0,1,0,6.27,0Zm-6.84,0a3.58,3.58,0,0,1,3.71-3.7,3.64,3.64,0,0,1,3.71,3.7,3.71,3.71,0,0,1-7.42,0Z" transform="translate(-17 -18)"/><text class="cls-1" transform="translate(175.08 179.41)">ASOCI<tspan class="cls-2" x="71.5" y="0">A</tspan><tspan x="86.47" y="0">CIÓN DEL A</tspan><tspan class="cls-3" x="218.5" y="0">LT</tspan><tspan x="243.5" y="0">O M</tspan><tspan class="cls-4" x="290.7" y="0">A</tspan><tspan x="305.67" y="0">G</tspan><tspan class="cls-4" x="323.37" y="0">D</tspan><tspan x="340.62" y="0">ALENA</tspan></text></svg>